<svg xmlns="http://www.w3.org/2000/svg" width="60" height="60"><g fill="none" stroke="#fff"><g stroke-linejoin="round"><path stroke-linecap="round" stroke-width="7.49997057" d="m7.338 46.065-2.963 4.91h51.25l-2.992-4.91z"/><path stroke-width="9.99996076" d="M10.05 46.635V25.578"/><path stroke-width="10" d="M49.95 46.635V25.578"/></g><path stroke-width="7.49997057" d="M7.365 17.297a.768.768 0 0 0-.77.77v6.978c0 .426.344.77.77.77h45.27c.426 0 .77-.344.77-.77v-6.978a.768.768 0 0 0-.77-.77z"/><path stroke-linecap="round" stroke-linejoin="round" stroke-width="8.124735690000001" d="M4.886 17.297h50.228l-24.878-7.96z"/></g><path fill="#fff" fill-rule="evenodd" d="M8.73 25.752h42.54v21.374H8.73V25.752z"/><g fill="none" stroke="#4c4c4c" stroke-width="5.378"><path d="M10.05 46.635V25.578M20.025 46.635V25.578M30 46.635V25.578M39.975 46.635V25.578M49.95 46.635V25.578" stroke-width="4.99998038"/></g><path fill="#7f7f7f" fill-rule="evenodd" stroke="#000" stroke-width="2.49999019" d="M7.365 17.297a.768.768 0 0 0-.77.77v6.978c0 .426.344.77.77.77h45.27c.426 0 .77-.344.77-.77v-6.978a.768.768 0 0 0-.77-.77z"/><path fill="#4c4c4c" fill-rule="evenodd" stroke="#000" stroke-linecap="round" stroke-linejoin="round" stroke-width="3.1247553100000003" d="M4.886 17.297h50.228l-24.878-7.96z"/><path fill="#4c4c4c" fill-rule="evenodd" stroke="#000" stroke-linecap="round" stroke-linejoin="round" stroke-width="2.49999019" d="m7.338 46.065-2.963 4.91h51.25l-2.992-4.91z"/></svg>